<?xml version="1.0" encoding="UTF-8"?>
<svg id="Layer_1" data-name="Layer 1" xmlns="http://www.w3.org/2000/svg" viewBox="0 0 1000 1000">
  <defs>
    <style>
      .cls-1 {
        fill: #0074bf;
      }

      .cls-2 {
        fill: #fff;
      }

      .cls-3 {
        fill: #f22540;
      }
    </style>
  </defs>
  <path class="cls-3" d="M761.43,428.69c-5.7-8.3-56.47-50.42-57.44-54.83-.13-.63-.13-2.21,0-2.84.87-3.96,48.21-45.26,53.61-52.95,2.99-4.41,2.59-7.89-.47-11.82l-175.21-96.44-12.43.94-55.53,52.01-54.56-51.07c-3.81-1.93-8.27-2.51-12.45-1.88l-176.63,96.9-1.91,5.68c.62,11.72,57.34,56.46,56.49,60.51l-58.41,54.85c-2.02,4.64-2.04,10.05,2.39,13.72l182.86,101.16c4.51.46,5.13-.71,8.61-2.84,8.36-5.13,48.06-49.33,51.71-50.11.62-.13,2.24-.13,2.87,0,5.36,1.16,45.94,48.81,53.59,52.01,2.59,1.07,4.93,1.11,7.67.94l184.28-103.54c2.29-3.47,2.71-6.34.95-10.4ZM515.88,468.88l-6.7-.94-165.15-92.2,168.02-94.08c58.51,28.98,114.78,63.59,172.8,94.08l-168.97,93.14Z"/>
  <g>
    <rect class="cls-3" x="100" y="480.27" width="178.08" height="204.82"/>
    <rect class="cls-3" x="717.62" y="475.34" width="182.38" height="275.77"/>
    <rect class="cls-1" x="537.37" y="573.86" width="254.61" height="191.96"/>
    <rect class="cls-3" x="400.4" y="574.27" width="199.49" height="216.16"/>
    <rect class="cls-1" x="197.6" y="556.13" width="271.96" height="226.68"/>
    <rect class="cls-2" x="104.94" y="486.06" width="167.8" height="192.74"/>
    <rect class="cls-2" x="722.25" y="480.28" width="172.23" height="264.53"/>
    <rect class="cls-2" x="539.98" y="580.04" width="245.77" height="179.49"/>
    <rect class="cls-2" x="406.69" y="580.15" width="186.87" height="202.67"/>
    <rect class="cls-2" x="203.89" y="561.43" width="258.83" height="215.09"/>
    <g>
      <path class="cls-1" d="M289.69,759.83h-.13c-1.38.17-2.8.26-4.26.26-2.5,0-4.9-.26-7.22-.77h-.39c-9.63-1.98-18.17-6.17-25.61-12.58-7.44-6.41-13.72-13.98-18.84-22.71-5.12-8.73-9.01-17.52-11.68-26.38-1.72-5.16-2.93-10.41-3.61-15.74-.69-5.33-1.03-10.32-1.03-14.97,0-18.41,4.6-35.22,13.8-50.45,1.98-3.35,4.09-6.54,6.32-9.55h-33.8l-.26-27.09h111.73v27.09h-7.1c-11.44,2.24-21.95,7.64-31.54,16.19-9.59,8.56-17.33,18.51-23.22,29.87-5.89,11.35-8.84,22.02-8.84,32,0,4.82.82,9.25,2.45,13.29,1.63,4.04,4.17,7.44,7.61,10.19h.26c.43.09,1.37.26,2.84.52h.9v.13l4.39-5.55c6.28-6.53,13.85-9.8,22.71-9.8s16.4,3.27,22.64,9.8c6.24,6.54,9.35,14.41,9.35,23.61s-3.1,16.99-9.29,23.35c-5.16,5.25-11.22,8.34-18.19,9.29Z"/>
      <path class="cls-1" d="M425.5,607.07v142.43l-5.42,5.42c0-.08-.05-.13-.13-.13-.26-.43-1.33-2.41-3.23-5.94-2.32-4.04-5.98-8.86-10.97-14.45-4.99-5.59-11.57-10.92-19.74-16-8.17-5.08-18.13-8.82-29.87-11.22-11.74-2.41-25.48-2.41-41.22,0l-27.87-53.93c.6-.26,7.78-3.14,21.55-8.64,14.36-5.68,29.65-11.37,45.87-17.1,16.21-5.72,28.27-9.05,36.19-10v-10.45h-116.24v-27.22h180.75v27.22h-29.67ZM352.99,719.32c7.57,0,14.02,2.8,19.35,8.39,5.33,5.59,8,12.34,8,20.25s-2.67,14.79-8,20.38c-5.33,5.59-11.78,8.39-19.35,8.39s-14.02-2.8-19.35-8.39c-5.33-5.59-8-12.38-8-20.38s2.66-14.66,8-20.25c5.33-5.59,11.78-8.39,19.35-8.39ZM394.15,703.06v-44.77c-10.92,1.98-19.85,4.19-26.77,6.65-6.93,2.45-12.02,4.62-15.29,6.51-.09,0-.13.05-.13.13-.09,0-.22.05-.39.13v.13h-.26v.13c-.09,0-.17.04-.26.13h-.13l-.13.13h-.13c0,.09-.04.13-.13.13h-.13v.13h-.13c-1.46.86-2.41,1.42-2.84,1.68-.09,0-.13.04-.13.13h-.13c7.31,3.53,14.38,7.61,21.22,12.26,6.84,4.65,12.53,8.77,17.09,12.39,0,.09.04.13.13.13,0,.09.04.13.13.13s.13.05.13.13c.08,0,.17.04.26.13v.13c.09,0,.17.04.26.13l.77.52v.13c.09,0,.13.05.13.13.08,0,.17.04.26.13,0,.09.04.13.13.13s.13.05.13.13c.09,0,.17.05.26.13l.39.39h.13v.13h.13l.39.39c1.55,1.21,2.49,1.98,2.84,2.32.08,0,.17.05.26.13l1.94-1.29Z"/>
    </g>
    <g>
      <path class="cls-3" d="M787.78,656.7c0,1.46-.05,2.88-.13,4.26-.26,3.61-.13,7.22.39,10.84,1.63,9.98,7.4,16,17.29,18.06,5.16.6,10.43.07,15.8-1.61,5.37-1.68,10.26-3.94,14.64-6.77,7.22-4.99,12.51-11.57,15.87-19.74.17-.34.9-2.6,2.19-6.77,1.29-4.17,1.59-8.06.9-11.68v.64c0,.26-.05.56-.13.9-.09.34-.19.75-.32,1.23-.13.47-.3.97-.52,1.48-.22.52-.5,1.08-.84,1.68-.34.6-.73,1.21-1.16,1.81-.43.6-.95,1.25-1.55,1.93-3.01,3.27-6.92,5.74-11.74,7.42-4.82,1.68-9.83,1.96-15.03.84-5.2-1.12-9.96-4.21-14.26-9.29-3.27-4.13-5.4-8.75-6.39-13.87-.99-5.12-.97-10.17.07-15.16,2.15-9.98,7.65-17.8,16.51-23.48,6.11-3.87,13.24-5.59,21.42-5.16,7.05.43,13.59,3.05,19.61,7.87,7.83,6.62,13.27,14.49,16.32,23.61,3.05,9.12,4,18.51,2.84,28.19-1.16,9.68-4.11,18.69-8.84,27.03-5.51,9.2-12.39,16.82-20.64,22.84-8.26,6.02-16.88,10.39-25.87,13.1-8.99,2.71-17.27,3.81-24.83,3.29-12.9-.86-23.48-5.7-31.74-14.52-8.26-8.81-13.33-22.13-15.22-39.93v-87.99h-27.09l-.13-27.22h125.53l.77-.77c2.66-2.75,5.05-5.98,7.16-9.68,2.11-3.7,2.65-6.71,1.61-9.03-1.29-2.06-4.19-3.27-8.71-3.61-4.52-.34-10.02.05-16.51,1.16-6.5,1.12-13.31,2.8-20.45,5.03-7.4,2.58-15.7,4.97-24.9,7.16-9.2,2.19-18.06,3.14-26.58,2.84-8.51-.3-15.57-2.9-21.16-7.8-2.5-1.98-5.14-5.93-7.93-11.87-2.79-5.94-4.45-14.97-4.97-27.09,1.03-.86,2.15-1.76,3.35-2.71.69-.43,1.31-.86,1.87-1.29.56-.43,1.1-.86,1.61-1.29,1.2,1.81,2.79,3.83,4.77,6.06,1.03,1.21,1.98,2.37,2.84,3.48,6.02,7.74,12.15,11.7,18.38,11.87,6.24.17,13.95-1.33,23.16-4.52,3.44-1.03,7.22-2.11,11.35-3.23,5.68-1.63,12.52-2.88,20.51-3.74,8-.86,16.21-.73,24.64.39,8.43,1.12,16.17,3.87,23.22,8.26,8.26,5.68,12.99,11.78,14.19,18.32,1.2,6.54,1.33,12.69.39,18.45-.17,1.29-.3,2.5-.39,3.61h12.77l.13,27.22h-103.98l-.13,78.96Z"/>
      <path class="cls-3" d="M789.99,540.54c27.95-20.47,55.91-40.94,83.86-61.41,3.78,2.24,7.53,4.52,11.22,6.84-14.97,20.81-29.93,41.67-44.9,62.57-16.69-2.67-33.42-5.33-50.19-8Z"/>
    </g>
    <path class="cls-3" d="M108.79,497.71h157.83v27.22H108.79v-27.22ZM191.75,580.28c.13,4.65-1.4,8.99-4.58,13.03-3.18,4.05-9.12,6.88-17.8,8.52-11.01,1.29-19.55-1.33-25.61-7.87-6.06-6.53-9.05-14.56-8.97-24.06.08-9.5,3.91-18.04,11.48-25.61,11.27-10.41,24.25-16.21,38.96-17.42,14.71-1.2,29.03,3.18,42.96,13.16,7.4,5.42,13.57,12.32,18.51,20.71,4.94,8.39,7.7,17.29,8.26,26.71.56,9.42-2.17,18.36-8.19,26.83-6.02,8.47-16.38,15.55-31.09,21.22l-.9.26.13.77.13.13c3.78,1.38,11.29,5.08,22.51,11.1,11.22,6.02,21.35,13.29,30.38,21.8l-11.1,12.51c-5.42-4.65-10.97-8.67-16.64-12.06-5.68-3.4-12.97-6.81-21.87-10.26-8.9-3.44-19.53-6.39-31.87-8.84-12.34-2.45-26.56-3.85-42.64-4.19l-16.13-42.32c12.21,2.15,22.86,3.44,31.93,3.87,9.07.43,18.32-.21,27.74-1.93,9.42-1.72,17.65-5.25,24.71-10.58,3.01-2.15,6.32-5.31,9.93-9.48,3.61-4.17,5.37-9.14,5.29-14.9-.77-4.47-2.34-7.93-4.71-10.39-2.37-2.45-3.81-3.76-4.32-3.93-5.16-3.18-10.82-3.85-16.97-2-6.15,1.85-10.77,4.5-13.87,7.93,2.75,6.88,4.19,12.64,4.32,17.29Z"/>
    <path class="cls-3" d="M538.46,625.85v10.06c7.57,1.46,16.21,4.41,25.93,8.84,9.72,4.43,18.08,11.4,25.09,20.9,7.01,9.5,10.26,22.6,9.74,39.28l-1.29,6.06c-.86,4.04-2.82,8.3-5.87,12.77-3.06,4.47-7.76,7.61-14.13,9.42-8.77,1.98-16.45.84-23.03-3.42-6.58-4.26-10.3-10.52-11.16-18.77-.43-6.36,1.05-12.13,4.45-17.29,3.4-5.16,8.06-9.07,14-11.74v-.39c.08-.69.04-1.65-.13-2.9-.17-1.25-.63-2.56-1.35-3.93-.73-1.37-1.93-2.62-3.61-3.74-1.68-1.12-4.02-1.93-7.03-2.45-3.01-.52-6.88-.56-11.61-.13l-.13,99.86-5.42,5.42v-.13c-.26-.52-1.16-2.54-2.71-6.06-1.89-4.04-5.05-8.86-9.48-14.45-4.43-5.59-10.45-10.94-18.06-16.06-7.61-5.12-17.07-8.9-28.38-11.35-11.31-2.45-24.84-2.47-40.58-.06l-27.87-53.93,20.13-8.64c13.33-5.76,27.63-11.48,42.9-17.16,15.27-5.68,26.81-8.99,34.64-9.93v-10.06h-77.67v-27.09h190.95v27.09h-78.31ZM508.91,724.68l-1.93-2.97v-48.77c-9.72,2.06-17.61,4.63-23.67,7.68-6.06,3.05-10.47,5.83-13.22,8.32-2.24,2.06-3.57,3.27-4,3.61l-.13.13c9.46,3.87,17.37,8.43,23.74,13.68,6.36,5.25,11.18,9.93,14.45,14.06v.13c0,.09.04.13.13.13,0,.09.04.13.13.13v.13l.26.26c.09.09.17.22.26.39l.13.13c0,.09.04.13.13.13v.13l.39.39c1.89,2.5,2.97,3.91,3.23,4.26.08,0,.13.04.13.13v-2.07Z"/>
    <g>
      <path class="cls-1" d="M627.59,668.75c.77-2.06,1.07-4.04.9-5.93-1.12-4.9-6.32-8.73-15.61-11.48-9.29-2.75-20.34-3.1-33.16-1.03l-17.68-36.25h-18.19v-27.09h189.01v27.09h-26.71v142.3l-4.65,5.42-4.9-7.35c-3.35-4.9-7.74-10.6-13.16-17.09-5.42-6.49-11.4-12.43-17.93-17.8-6.54-5.37-13.12-8.75-19.74-10.13-.6,4.99-2.69,9.8-6.26,14.45-3.57,4.64-8.5,8.26-14.77,10.84-6.28,2.58-13.72,3.31-22.32,2.19-8.86-1.29-15.91-5.31-21.16-12.06-5.25-6.75-7.79-14.51-7.61-23.29.52-8.52,3.37-15.74,8.58-21.67,5.2-5.93,11.76-9.98,19.67-12.13,9.29-2.15,17.84-1.81,25.67,1.03ZM613.01,614.05c1.72,1.38,3.53,2.93,5.42,4.65,3.95,3.61,7.89,7.98,11.8,13.1,3.91,5.12,7.42,11.07,10.51,17.87,4.21,9.8,6.75,18.75,7.61,26.83.17,1.89.3,3.7.39,5.42,2.24,1.89,4.39,3.96,6.45,6.19,6.54,7.22,11.78,13.63,15.74,19.22.26.26.47.56.64.9v-2.71l-2.19-3.48v-87.99h-56.38Z"/>
      <path class="cls-1" d="M765.01,614.05l-.26,142.82-4.65,5.42-31.35-12.39v-135.85h-20.13l-.26-27.09h78.57v27.09h-21.93Z"/>
    </g>
  </g>
</svg>