<svg width="400" height="400" viewBox="0 0 400 400" fill="none" xmlns="http://www.w3.org/2000/svg">
  <rect width="400" height="400" fill="#f3f4f6"/>
  <path d="M200 100c-44.183 0-80 35.817-80 80s35.817 80 80 80 80-35.817 80-80-35.817-80-80-80zm0 140c-33.137 0-60-26.863-60-60s26.863-60 60-60 60 26.863 60 60-26.863 60-60 60z" fill="#9ca3af"/>
  <path d="M200 140c-22.091 0-40 17.909-40 40s17.909 40 40 40 40-17.909 40-40-17.909-40-40-40zm0 60c-11.046 0-20-8.954-20-20s8.954-20 20-20 20 8.954 20 20-8.954 20-20 20z" fill="#9ca3af"/>
  <path d="M320 300H80c-11.046 0-20-8.954-20-20V120c0-11.046 8.954-20 20-20h240c11.046 0 20 8.954 20 20v160c0 11.046-8.954 20-20 20zM80 120v160h240V120H80z" fill="#9ca3af"/>
  <text x="200" y="330" font-family="Arial, sans-serif" font-size="16" fill="#6b7280" text-anchor="middle">No Image Available</text>
</svg>
